<svg width="23" height="26" viewBox="0 0 23 26" fill="none" xmlns="http://www.w3.org/2000/svg">
<path d="M23 23.4V5.2C23 3.7661 21.8538 2.6 20.4444 2.6H17.8889V0H15.3333V2.6H7.66667V0H5.11111V2.6H2.55556C1.14617 2.6 0 3.7661 0 5.2V23.4C0 24.8339 1.14617 26 2.55556 26H20.4444C21.8538 26 23 24.8339 23 23.4ZM7.66667 20.8H5.11111V18.2H7.66667V20.8ZM7.66667 15.6H5.11111V13H7.66667V15.6ZM12.7778 20.8H10.2222V18.2H12.7778V20.8ZM12.7778 15.6H10.2222V13H12.7778V15.6ZM17.8889 20.8H15.3333V18.2H17.8889V20.8ZM17.8889 15.6H15.3333V13H17.8889V15.6ZM20.4444 9.1H2.55556V6.5H20.4444V9.1Z" fill="#FFD700"/>
</svg>
