<svg width="35" height="30" viewBox="0 0 35 30" fill="none" xmlns="http://www.w3.org/2000/svg">
<rect width="35" height="30" rx="5" fill="#2776EA"/>
<path d="M17 7C19.1736 7 19.4448 7.008 20.2976 7.048C21.1496 7.088 21.7296 7.2216 22.24 7.42C22.768 7.6232 23.2128 7.8984 23.6576 8.3424C24.0644 8.74232 24.3792 9.22607 24.58 9.76C24.7776 10.2696 24.912 10.8504 24.952 11.7024C24.9896 12.5552 25 12.8264 25 15C25 17.1736 24.992 17.4448 24.952 18.2976C24.912 19.1496 24.7776 19.7296 24.58 20.24C24.3797 20.7742 24.0649 21.2581 23.6576 21.6576C23.2576 22.0643 22.7738 22.379 22.24 22.58C21.7304 22.7776 21.1496 22.912 20.2976 22.952C19.4448 22.9896 19.1736 23 17 23C14.8264 23 14.5552 22.992 13.7024 22.952C12.8504 22.912 12.2704 22.7776 11.76 22.58C11.2259 22.3796 10.742 22.0648 10.3424 21.6576C9.93553 21.2577 9.62075 20.774 9.42 20.24C9.2216 19.7304 9.088 19.1496 9.048 18.2976C9.0104 17.4448 9 17.1736 9 15C9 12.8264 9.008 12.5552 9.048 11.7024C9.088 10.8496 9.2216 10.2704 9.42 9.76C9.62019 9.22574 9.93504 8.74186 10.3424 8.3424C10.7421 7.93538 11.2259 7.62058 11.76 7.42C12.2704 7.2216 12.8496 7.088 13.7024 7.048C14.5552 7.0104 14.8264 7 17 7ZM17 11C15.9391 11 14.9217 11.4214 14.1716 12.1716C13.4214 12.9217 13 13.9391 13 15C13 16.0609 13.4214 17.0783 14.1716 17.8284C14.9217 18.5786 15.9391 19 17 19C18.0609 19 19.0783 18.5786 19.8284 17.8284C20.5786 17.0783 21 16.0609 21 15C21 13.9391 20.5786 12.9217 19.8284 12.1716C19.0783 11.4214 18.0609 11 17 11ZM22.2 10.8C22.2 10.5348 22.0946 10.2804 21.9071 10.0929C21.7196 9.90536 21.4652 9.8 21.2 9.8C20.9348 9.8 20.6804 9.90536 20.4929 10.0929C20.3054 10.2804 20.2 10.5348 20.2 10.8C20.2 11.0652 20.3054 11.3196 20.4929 11.5071C20.6804 11.6946 20.9348 11.8 21.2 11.8C21.4652 11.8 21.7196 11.6946 21.9071 11.5071C22.0946 11.3196 22.2 11.0652 22.2 10.8ZM17 12.6C17.6365 12.6 18.247 12.8529 18.6971 13.3029C19.1471 13.753 19.4 14.3635 19.4 15C19.4 15.6365 19.1471 16.247 18.6971 16.6971C18.247 17.1471 17.6365 17.4 17 17.4C16.3635 17.4 15.753 17.1471 15.3029 16.6971C14.8529 16.247 14.6 15.6365 14.6 15C14.6 14.3635 14.8529 13.753 15.3029 13.3029C15.753 12.8529 16.3635 12.6 17 12.6Z" fill="white"/>
</svg>
