<svg width="24" height="22" viewBox="0 0 24 22" fill="none" xmlns="http://www.w3.org/2000/svg">
<path d="M20.418 0.725586C20.418 0.533149 20.3415 0.348593 20.2055 0.212519C20.0694 0.0764454 19.8848 0 19.6924 0H3.72949C3.53706 0 3.3525 0.0764454 3.21643 0.212519C3.08035 0.348593 3.00391 0.533149 3.00391 0.725586V1.45117H20.418V0.725586Z" fill="#FFD700"/>
<path d="M21.8555 3.74414C21.8555 3.5517 21.779 3.36715 21.643 3.23107C21.5069 3.095 21.3223 3.01855 21.1299 3.01855H2.26465C2.07221 3.01855 1.88766 3.095 1.75158 3.23107C1.61551 3.36715 1.53906 3.5517 1.53906 3.74414V4.46973H21.8555V3.74414Z" fill="#FFD700"/>
<path d="M21.8547 6.03711H1.3641C1.00232 6.03711 0.655355 6.18083 0.399536 6.43665C0.143717 6.69246 0 7.03943 0 7.40121V20.6359C0 20.9977 0.143717 21.3446 0.399536 21.6005C0.655355 21.8563 1.00232 22 1.3641 22H21.8547C22.2164 22 22.5634 21.8563 22.8192 21.6005C23.075 21.3446 23.2188 20.9977 23.2188 20.6359V7.40121C23.2188 7.03943 23.075 6.69246 22.8192 6.43665C22.5634 6.18083 22.2164 6.03711 21.8547 6.03711V6.03711ZM4.75985 8.54038C5.19037 8.54038 5.61122 8.66805 5.96919 8.90723C6.32715 9.14642 6.60615 9.48638 6.77091 9.88413C6.93566 10.2819 6.97877 10.7196 6.89478 11.1418C6.81079 11.5641 6.60347 11.9519 6.29905 12.2563C5.99462 12.5608 5.60676 12.7681 5.18451 12.8521C4.76226 12.9361 4.32459 12.893 3.92684 12.7282C3.52909 12.5634 3.18912 12.2844 2.94994 11.9265C2.71075 11.5685 2.58309 11.1477 2.58309 10.7171C2.58309 10.1398 2.81242 9.58616 3.22064 9.17794C3.62887 8.76972 4.18253 8.54038 4.75985 8.54038V8.54038ZM20.3164 19.0977H2.90234L8.31522 13.6775C8.41171 13.5818 8.54211 13.5281 8.67801 13.5281C8.81392 13.5281 8.94431 13.5818 9.0408 13.6775L11.711 16.3477L15.3897 12.5674C15.4862 12.4717 15.6166 12.418 15.7525 12.418C15.8884 12.418 16.0188 12.4717 16.1153 12.5674L20.3164 16.7685V19.0977Z" fill="#FFD700"/>
</svg>
