<svg width="35" height="30" viewBox="0 0 35 30" fill="none" xmlns="http://www.w3.org/2000/svg">
<rect width="35" height="30" rx="5" fill="#2776EA"/>
<path d="M17 6C19.4453 6 19.7504 6.009 20.7098 6.054C21.6683 6.099 22.3208 6.2493 22.895 6.4725C23.489 6.7011 23.9894 7.0107 24.4898 7.5102C24.9474 7.96011 25.3016 8.50433 25.5275 9.105C25.7498 9.6783 25.901 10.3317 25.946 11.2902C25.9883 12.2496 26 12.5547 26 15C26 17.4453 25.991 17.7504 25.946 18.7098C25.901 19.6683 25.7498 20.3208 25.5275 20.895C25.3022 21.496 24.948 22.0404 24.4898 22.4898C24.0398 22.9473 23.4956 23.3014 22.895 23.5275C22.3217 23.7498 21.6683 23.901 20.7098 23.946C19.7504 23.9883 19.4453 24 17 24C14.5547 24 14.2496 23.991 13.2902 23.946C12.3317 23.901 11.6792 23.7498 11.105 23.5275C10.5041 23.302 9.95977 22.9479 9.5102 22.4898C9.05247 22.04 8.69834 21.4957 8.4725 20.895C8.2493 20.3217 8.099 19.6683 8.054 18.7098C8.0117 17.7504 8 17.4453 8 15C8 12.5547 8.009 12.2496 8.054 11.2902C8.099 10.3308 8.2493 9.6792 8.4725 9.105C8.69771 8.50396 9.05192 7.95959 9.5102 7.5102C9.9599 7.05231 10.5042 6.69816 11.105 6.4725C11.6792 6.2493 12.3308 6.099 13.2902 6.054C14.2496 6.0117 14.5547 6 17 6ZM17 10.5C15.8065 10.5 14.6619 10.9741 13.818 11.818C12.9741 12.6619 12.5 13.8065 12.5 15C12.5 16.1935 12.9741 17.3381 13.818 18.182C14.6619 19.0259 15.8065 19.5 17 19.5C18.1935 19.5 19.3381 19.0259 20.182 18.182C21.0259 17.3381 21.5 16.1935 21.5 15C21.5 13.8065 21.0259 12.6619 20.182 11.818C19.3381 10.9741 18.1935 10.5 17 10.5ZM22.85 10.275C22.85 9.97663 22.7315 9.69048 22.5205 9.4795C22.3095 9.26853 22.0234 9.15 21.725 9.15C21.4266 9.15 21.1405 9.26853 20.9295 9.4795C20.7185 9.69048 20.6 9.97663 20.6 10.275C20.6 10.5734 20.7185 10.8595 20.9295 11.0705C21.1405 11.2815 21.4266 11.4 21.725 11.4C22.0234 11.4 22.3095 11.2815 22.5205 11.0705C22.7315 10.8595 22.85 10.5734 22.85 10.275ZM17 12.3C17.7161 12.3 18.4028 12.5845 18.9092 13.0908C19.4155 13.5972 19.7 14.2839 19.7 15C19.7 15.7161 19.4155 16.4028 18.9092 16.9092C18.4028 17.4155 17.7161 17.7 17 17.7C16.2839 17.7 15.5972 17.4155 15.0908 16.9092C14.5845 16.4028 14.3 15.7161 14.3 15C14.3 14.2839 14.5845 13.5972 15.0908 13.0908C15.5972 12.5845 16.2839 12.3 17 12.3Z" fill="white"/>
</svg>
