<svg width="35" height="30" viewBox="0 0 35 30" fill="none" xmlns="http://www.w3.org/2000/svg">
<rect width="35" height="30" rx="5" fill="#2776EA"/>
<path d="M11.8028 11.6056C12.7985 11.6056 13.6056 10.7985 13.6056 9.8028C13.6056 8.80714 12.7985 8 11.8028 8C10.8071 8 10 8.80714 10 9.8028C10 10.7985 10.8071 11.6056 11.8028 11.6056Z" fill="white"/>
<path d="M15.3087 12.9718V22.9737H18.4142V18.0275C18.4142 16.7224 18.6597 15.4585 20.278 15.4585C21.874 15.4585 21.8937 16.9506 21.8937 18.1099V22.9745H25.0009V17.4895C25.0009 14.7952 24.4208 12.7246 21.2717 12.7246C19.7597 12.7246 18.7463 13.5543 18.3318 14.3395H18.2898V12.9718H15.3087V12.9718ZM10.248 12.9718H13.3585V22.9737H10.248V12.9718Z" fill="white"/>
</svg>
