<svg width="20" height="25" viewBox="0 0 20 25" fill="none" xmlns="http://www.w3.org/2000/svg">
<path d="M10 0C7.3488 0.00307185 4.80708 1.03881 2.93239 2.88002C1.05771 4.72123 0.00313834 7.21757 1.0639e-05 9.82143C-0.00316471 11.9493 0.704538 14.0194 2.01455 15.7143C2.01455 15.7143 2.28728 16.067 2.33183 16.1179L10 25L17.6718 16.1134C17.7118 16.0661 17.9854 15.7143 17.9854 15.7143L17.9864 15.7116C19.2957 14.0175 20.0031 11.9483 20 9.82143C19.9969 7.21757 18.9423 4.72123 17.0676 2.88002C15.1929 1.03881 12.6512 0.00307185 10 0V0ZM10 13.3929C9.2808 13.3929 8.57774 13.1834 7.97975 12.791C7.38175 12.3985 6.91567 11.8407 6.64044 11.1882C6.36521 10.5356 6.2932 9.81747 6.43351 9.12468C6.57382 8.43189 6.92015 7.79552 7.42871 7.29605C7.93726 6.79657 8.5852 6.45643 9.29058 6.31862C9.99597 6.18082 10.7271 6.25155 11.3916 6.52186C12.056 6.79217 12.624 7.24993 13.0235 7.83725C13.4231 8.42457 13.6364 9.11507 13.6364 9.82143C13.6352 10.7683 13.2517 11.676 12.57 12.3455C11.8883 13.015 10.9641 13.3917 10 13.3929V13.3929Z" fill="#FFD700"/>
</svg>
