<svg width="17" height="21" viewBox="0 0 17 21" fill="none" xmlns="http://www.w3.org/2000/svg">
<path d="M8.25 12C7.50832 12 6.7833 11.7801 6.16661 11.368C5.54993 10.956 5.06928 10.3703 4.78545 9.68506C4.50162 8.99984 4.42736 8.24584 4.57206 7.51841C4.71675 6.79098 5.0739 6.1228 5.59835 5.59835C6.1228 5.0739 6.79098 4.71675 7.51841 4.57206C8.24584 4.42736 8.99984 4.50162 9.68507 4.78545C10.3703 5.06928 10.956 5.54993 11.368 6.16661C11.7801 6.7833 12 7.50832 12 8.25C11.9988 9.2442 11.6033 10.1973 10.9003 10.9003C10.1973 11.6033 9.2442 11.9988 8.25 12ZM8.25 6C7.80499 6 7.36998 6.13196 6.99997 6.3792C6.62996 6.62643 6.34157 6.97783 6.17127 7.38896C6.00098 7.8001 5.95642 8.2525 6.04323 8.68895C6.13005 9.12541 6.34434 9.52632 6.65901 9.84099C6.97368 10.1557 7.37459 10.37 7.81105 10.4568C8.24751 10.5436 8.69991 10.499 9.11104 10.3287C9.52217 10.1584 9.87358 9.87005 10.1208 9.50003C10.368 9.13002 10.5 8.69501 10.5 8.25C10.4994 7.65345 10.2622 7.0815 9.84033 6.65967C9.41851 6.23784 8.84656 6.0006 8.25 6Z" fill="white"/>
<path d="M8.25001 21L1.92301 13.5382C1.83509 13.4262 1.74809 13.3135 1.66201 13.2C0.581244 11.7763 -0.00261089 10.0374 8.77716e-06 8.25C8.77716e-06 6.06196 0.869203 3.96354 2.41638 2.41637C3.96355 0.869194 6.06197 0 8.25001 0C10.438 0 12.5365 0.869194 14.0836 2.41637C15.6308 3.96354 16.5 6.06196 16.5 8.25C16.5026 10.0366 15.919 11.7747 14.8388 13.1978L14.838 13.2C14.838 13.2 14.613 13.4955 14.5793 13.5353L8.25001 21ZM2.85901 12.2963C2.86051 12.2963 3.03451 12.5272 3.07426 12.5767L8.25001 18.681L13.4325 12.5685C13.4655 12.5272 13.641 12.2948 13.6418 12.294C14.5246 11.1308 15.0017 9.71027 15 8.25C15 6.45979 14.2888 4.7429 13.023 3.47703C11.7571 2.21116 10.0402 1.5 8.25001 1.5C6.4598 1.5 4.74291 2.21116 3.47704 3.47703C2.21117 4.7429 1.50001 6.45979 1.50001 8.25C1.49844 9.71118 1.97534 11.1326 2.85901 12.2963Z" fill="white"/>
</svg>
