<svg width="35" height="30" viewBox="0 0 35 30" fill="none" xmlns="http://www.w3.org/2000/svg">
<rect width="35" height="30" rx="5" fill="#2776EA"/>
<path d="M26 9.77679C25.4988 10.5417 24.8838 11.1937 24.1551 11.7328C24.1623 11.8774 24.1659 12.0409 24.1659 12.2231C24.1659 13.2359 24.022 14.2498 23.7342 15.265C23.4463 16.2802 23.0066 17.2519 22.4151 18.1801C21.8235 19.1084 21.1189 19.9307 20.3012 20.6472C19.4834 21.3636 18.5005 21.9349 17.3523 22.3609C16.2041 22.787 14.9736 23 13.6607 23C11.6117 23 9.72484 22.4325 8 21.2976C8.30614 21.3326 8.59975 21.35 8.88084 21.35C10.5926 21.35 12.1215 20.8091 13.4675 19.7274C12.6693 19.7124 11.9546 19.4603 11.3231 18.9712C10.6917 18.4822 10.2572 17.8572 10.0195 17.0964C10.2544 17.1423 10.4862 17.1653 10.715 17.1653C11.0443 17.1653 11.3683 17.1212 11.6871 17.0331C10.8354 16.8581 10.1288 16.4229 9.56732 15.7275C9.0059 15.0321 8.72519 14.2295 8.72519 13.3197V13.2728C9.24799 13.5697 9.80564 13.7277 10.3981 13.7466C9.89358 13.4016 9.49353 12.9516 9.19801 12.3967C8.90247 11.8418 8.7547 11.2412 8.7547 10.5951C8.7547 9.9137 8.92114 9.27916 9.25404 8.69151C10.1803 9.85758 11.3026 10.7895 12.6211 11.4874C13.9395 12.1853 15.354 12.5728 16.8645 12.6501C16.8 12.3747 16.7678 12.0872 16.7676 11.7878C16.7676 10.7424 17.1283 9.8497 17.8496 9.10982C18.5708 8.36994 19.441 8 20.4601 8C21.5271 8 22.4258 8.39855 23.1562 9.19566C23.9908 9.02607 24.7723 8.71933 25.5006 8.27543C25.22 9.18133 24.6793 9.88017 23.8785 10.3719C24.6145 10.2822 25.3217 10.0838 26 9.77679H26Z" fill="white"/>
</svg>
