<svg width="29" height="29" viewBox="0 0 29 29" fill="none" xmlns="http://www.w3.org/2000/svg">
<path d="M28.2329 4.69474L14.8492 0.0545171C14.6221 -0.0181724 14.3793 -0.0181724 14.1522 0.0545171L0.78238 4.69474H0.754497L0.615083 4.76724H0.601142L0.461728 4.85425C0.461728 4.86875 0.447787 4.86875 0.433845 4.88325L0.322314 4.98476L0.224725 5.10076C0.224725 5.11526 0.210783 5.11526 0.210783 5.12976L0.127135 5.26027C0.127135 5.27477 0.127135 5.27477 0.113193 5.28927L0.057428 5.41978L0.015604 5.57928V5.62279C0.00185278 5.67961 -0.00285675 5.73839 0.00166258 5.79679V17.3974C0.00166258 17.705 0.119168 18.0001 0.328329 18.2176C0.53749 18.4352 0.821174 18.5574 1.11697 18.5574C1.41277 18.5574 1.69645 18.4352 1.90562 18.2176C2.11478 18.0001 2.23228 17.705 2.23228 17.3974V7.40637L6.91658 9.03045C6.03655 10.4956 5.57259 12.1896 5.57821 13.9172C5.57873 15.4883 5.96274 17.0336 6.69426 18.4083C7.42578 19.7829 8.48086 20.9419 9.76062 21.7766C7.10117 22.823 4.83076 24.7224 3.27789 27.1998C3.1196 27.4602 3.06598 27.7748 3.12856 28.0758C3.19115 28.3769 3.36493 28.6403 3.61248 28.8094C3.73396 28.8931 3.8702 28.9509 4.01332 28.9795C4.15644 29.008 4.30358 29.0068 4.44622 28.9758C4.58886 28.9447 4.72416 28.8846 4.84429 28.7988C4.96442 28.713 5.06698 28.6032 5.14603 28.4759C6.15835 26.854 7.54442 25.521 9.17818 24.5982C10.8119 23.6754 12.6416 23.192 14.5007 23.192C16.3598 23.192 18.1894 23.6754 19.8232 24.5982C21.457 25.521 22.843 26.854 23.8554 28.4759C23.9572 28.6367 24.0959 28.7686 24.2589 28.8597C24.422 28.9509 24.6043 28.9984 24.7894 28.9979C25.0031 29.0003 25.2123 28.9345 25.3889 28.8094C25.6365 28.6403 25.8102 28.3769 25.8728 28.0758C25.9354 27.7748 25.8818 27.4602 25.7235 27.1998C24.1706 24.7224 21.9002 22.823 19.2408 21.7766C20.5205 20.9419 21.5756 19.7829 22.3071 18.4083C23.0386 17.0336 23.4227 15.4883 23.4232 13.9172C23.4288 12.1896 22.9648 10.4956 22.0848 9.03045L28.2329 6.89885C28.4561 6.82256 28.6504 6.67495 28.7881 6.47706C28.9258 6.27917 29 6.0411 29 5.79679C29 5.55249 28.9258 5.31442 28.7881 5.11653C28.6504 4.91864 28.4561 4.77103 28.2329 4.69474V4.69474ZM14.5007 20.8775C12.7259 20.8775 11.0238 20.1442 9.76883 18.8389C8.51387 17.5336 7.80883 15.7632 7.80883 13.9172C7.81152 12.4319 8.2653 10.9855 9.10538 9.78449L14.1522 11.5391C14.3785 11.6165 14.6228 11.6165 14.8492 11.5391L19.896 9.78449C20.7361 10.9855 21.1899 12.4319 21.1926 13.9172C21.1926 15.7632 20.4875 17.5336 19.2326 18.8389C17.9776 20.1442 16.2755 20.8775 14.5007 20.8775Z" fill="white"/>
</svg>
