<svg width="29" height="29" viewBox="0 0 29 29" fill="none" xmlns="http://www.w3.org/2000/svg">
<path d="M25.7778 2.90026H19.0433C18.7134 2.05266 18.099 1.31827 17.2851 0.798682C16.4711 0.279097 15.4979 0 14.5 0C13.5021 0 12.5289 0.279097 11.7149 0.798682C10.901 1.31827 10.2866 2.05266 9.95667 2.90026H3.22222C2.36842 2.90256 1.55032 3.20883 0.946584 3.75218C0.342852 4.29553 0.00254995 5.03182 0 5.80023V26.1C0.00254995 26.8684 0.342852 27.6047 0.946584 28.1481C1.55032 28.6914 2.36842 28.9977 3.22222 29H25.7778C26.6316 28.9977 27.4497 28.6914 28.0534 28.1481C28.6572 27.6047 28.9975 26.8684 29 26.1V5.80023C28.9975 5.03182 28.6572 4.29553 28.0534 3.75218C27.4497 3.20883 26.6316 2.90256 25.7778 2.90026ZM14.5 2.90026C14.8186 2.90026 15.1301 2.9853 15.3951 3.14463C15.66 3.30396 15.8665 3.53041 15.9885 3.79536C16.1104 4.06031 16.1423 4.35186 16.0802 4.63313C16.018 4.9144 15.8645 5.17276 15.6392 5.37554C15.4139 5.57833 15.1268 5.71643 14.8143 5.77237C14.5018 5.82832 14.1778 5.79961 13.8835 5.68986C13.5891 5.58012 13.3374 5.39427 13.1604 5.15582C12.9834 4.91737 12.8889 4.63703 12.8889 4.35025C12.8902 3.96604 13.0603 3.5979 13.3622 3.32622C13.664 3.05455 14.0731 2.90141 14.5 2.90026ZM11.2778 10.1502L15.7728 14.2014L19.8328 10.5475L17.7222 8.70021H24.1667V14.5001L22.1109 12.5992L15.776 18.3049L11.2778 14.2536L7.11144 18.0004L4.83333 15.9501L11.2778 10.1502ZM25.7778 24.65H3.22222V21.7501H25.7778V24.65Z" fill="white"/>
</svg>
