<svg width="29" height="29" viewBox="0 0 29 29" fill="none" xmlns="http://www.w3.org/2000/svg">
<path d="M0 12.6875V28.0938C0 28.5945 0.324438 29 0.725 29H4.35V10.875H1.45C0.649328 10.875 0 11.6867 0 12.6875ZM16.3125 9.96875H15.225V7.70313C15.225 7.45278 15.0628 7.25 14.8625 7.25H14.1375C13.9372 7.25 13.775 7.45278 13.775 7.70313V11.3281C13.775 11.5785 13.9372 11.7813 14.1375 11.7813H16.3125C16.5128 11.7813 16.675 11.5785 16.675 11.3281V10.4219C16.675 10.1715 16.5128 9.96875 16.3125 9.96875ZM22.5543 6.34602L15.3043 0.304165C15.0661 0.105827 14.7862 0 14.5 0C14.2138 0 13.9339 0.105827 13.6957 0.304165L6.4457 6.34602C6.24712 6.51151 6.08429 6.73571 5.97165 6.99873C5.85901 7.26175 5.80005 7.55546 5.8 7.85379V29H11.6V20.8438C11.6 20.343 11.9244 19.9375 12.325 19.9375H16.675C17.0756 19.9375 17.4 20.343 17.4 20.8438V29H23.2V7.85436C23.2 7.2483 22.9576 6.6819 22.5543 6.34602ZM14.5 14.5C12.4981 14.5 10.875 12.4711 10.875 9.96875C10.875 7.46637 12.4981 5.4375 14.5 5.4375C16.5019 5.4375 18.125 7.46637 18.125 9.96875C18.125 12.4711 16.5019 14.5 14.5 14.5ZM27.55 10.875H24.65V29H28.275C28.6756 29 29 28.5945 29 28.0938V12.6875C29 11.6867 28.3507 10.875 27.55 10.875Z" fill="white"/>
</svg>
