<svg width="29" height="29" viewBox="0 0 29 29" fill="none" xmlns="http://www.w3.org/2000/svg">
<path d="M9.42505 19.9375C9.31675 19.9375 9.20846 19.9573 9.10514 19.9992C8.5179 20.2377 7.90029 20.3906 7.25005 20.3906C6.59982 20.3906 5.98221 20.2377 5.39451 19.9992C5.2912 19.9573 5.18336 19.9375 5.07506 19.9375C2.26297 19.9375 -0.0148799 22.7967 7.32012e-05 26.3164C0.00641694 27.8037 0.984711 29 2.17507 29H12.325C13.5154 29 14.4937 27.8037 14.5 26.3164C14.515 22.7967 12.2371 19.9375 9.42505 19.9375ZM7.25005 18.125C9.65252 18.125 11.6 15.6906 11.6 12.6875C11.6 9.68441 9.65252 7.25 7.25005 7.25C4.84759 7.25 2.90007 9.68441 2.90007 12.6875C2.90007 15.6906 4.84759 18.125 7.25005 18.125ZM26.825 0H9.42505C8.22563 0 7.25005 1.26025 7.25005 2.80881V5.4375C8.31127 5.4375 9.29364 5.82152 10.15 6.4457V3.625H26.1V19.9375H23.2V16.3125H17.4V19.9375H13.9454C14.8109 20.8828 15.4462 22.1312 15.7439 23.5625H26.825C28.0244 23.5625 29 22.3022 29 20.7537V2.80881C29 1.26025 28.0244 0 26.825 0Z" fill="white"/>
</svg>
